<?xml version="1.0" standalone="no"?>
<!DOCTYPE svg PUBLIC "-//W3C//DTD SVG 20010904//EN"
 "http://www.w3.org/TR/2001/REC-SVG-20010904/DTD/svg10.dtd">
<svg version="1.0" xmlns="http://www.w3.org/2000/svg"
 width="200.000000pt" height="200.000000pt" viewBox="0 0 200.000000 200.000000"
 preserveAspectRatio="xMidYMid meet">

<g transform="translate(0.000000,200.000000) scale(0.100000,-0.100000)"
fill="#000000" stroke="none">
<path d="M1250 1786 c-101 -29 -177 -82 -320 -222 -98 -95 -194 -175 -207
-173 -20 3 -34 -2 -28 -10 3 -5 0 -13 -6 -17 -8 -5 -9 -3 -4 6 6 10 -2 11 -38
6 -65 -10 -119 7 -156 49 -27 31 -31 43 -31 92 0 51 3 58 38 93 40 40 91 60
155 60 59 0 41 24 -19 28 -34 2 -66 -4 -97 -17 -26 -11 -46 -15 -44 -9 5 24
-24 17 -60 -16 -145 -131 -105 -366 76 -450 36 -17 65 -21 136 -21 151 1 257
58 438 235 111 109 203 170 258 170 78 0 160 -69 175 -146 5 -25 13 -36 30
-40 28 -7 67 -52 57 -67 -3 -5 -1 -7 4 -4 22 14 56 146 49 193 -14 108 -84
203 -181 245 -60 27 -162 34 -225 15z m-693 -462 c-3 -3 -12 -4 -19 -1 -8 3
-5 6 6 6 11 1 17 -2 13 -5z"/>
<path d="M1397 1258 c-32 -16 -56 -32 -54 -35 8 -7 90 32 106 50 7 10 12 16
10 15 -2 0 -30 -14 -62 -30z"/>
<path d="M648 905 l4 -25 -106 0 c-99 0 -106 -1 -106 -20 0 -19 7 -20 255 -20
248 0 255 1 255 20 0 19 -7 20 -105 20 -103 0 -105 0 -111 25 -5 22 -12 25
-49 25 -40 0 -42 -2 -37 -25z"/>
<path d="M1066 908 c23 -77 32 -88 70 -88 35 0 36 1 31 28 -14 70 -24 82 -67
82 -38 0 -41 -2 -34 -22z"/>
<path d="M1230 900 c0 -19 7 -20 105 -20 118 0 115 3 87 -75 l-18 -50 -87 -3
c-79 -3 -87 -5 -87 -22 0 -19 8 -20 131 -20 l132 0 -5 -150 -6 -150 29 0 c18
0 32 7 39 19 15 28 13 294 -2 309 -7 7 -22 12 -35 12 -28 0 -27 -6 -3 65 24
70 24 70 4 89 -12 13 -41 16 -150 16 -127 0 -134 -1 -134 -20z"/>
<path d="M527 780 c5 -30 5 -30 -41 -30 l-46 0 0 -170 0 -170 35 0 35 0 0 150
0 150 26 0 c23 0 25 -3 19 -30 -6 -29 -6 -30 33 -30 35 0 41 3 51 30 9 27 14
30 55 30 40 0 45 -3 55 -30 9 -27 14 -30 51 -30 41 0 41 0 35 30 -6 26 -4 30
15 30 20 0 21 -3 19 -147 l-1 -148 31 -3 c44 -5 51 22 51 182 0 146 -4 156
-58 156 -33 0 -34 1 -28 30 5 29 5 30 -35 30 -36 0 -41 -3 -50 -30 -11 -30
-12 -30 -84 -30 -72 0 -73 0 -84 30 -9 27 -14 30 -50 30 -40 0 -40 -1 -34 -30z"/>
<path d="M1073 737 c27 -71 29 -94 13 -200 -9 -59 -16 -112 -16 -117 0 -18 69
-11 79 8 5 9 14 64 21 122 11 91 11 112 -2 150 -14 43 -16 45 -58 48 -34 3
-42 0 -37 -11z"/>
<path d="M1256 628 c-15 -91 -25 -146 -31 -171 -7 -28 -7 -28 31 -25 38 3 39
5 51 53 7 28 16 78 19 113 l7 62 -36 0 c-33 0 -37 -3 -41 -32z"/>
<path d="M1375 638 c-3 -13 -9 -50 -14 -83 -6 -33 -13 -75 -17 -92 -6 -32 -6
-33 29 -33 31 0 37 4 46 33 11 34 31 149 31 180 0 13 -8 17 -35 17 -28 0 -36
-4 -40 -22z"/>
<path d="M540 540 l0 -80 149 0 149 0 4 64 c5 104 17 96 -153 96 l-149 0 0
-80z m230 0 l0 -40 -75 0 -75 0 0 40 0 40 75 0 75 0 0 -40z"/>
<path d="M1196 353 c-11 -11 -6 -23 9 -23 8 0 15 4 15 9 0 13 -16 22 -24 14z"/>
<path d="M1101 322 c-5 -9 -7 -31 -4 -47 11 -74 12 -75 46 -74 32 0 32 0 10
16 -27 18 -33 73 -8 73 8 0 15 5 15 10 0 6 -7 10 -15 10 -8 0 -15 7 -15 15 0
20 -17 19 -29 -3z"/>
<path d="M456 307 c-25 -19 -15 -45 24 -60 39 -15 38 -29 -2 -25 -39 4 -49
-18 -11 -25 73 -14 101 42 36 71 l-38 17 33 3 c20 2 32 8 29 15 -5 18 -49 20
-71 4z"/>
<path d="M582 304 c-32 -22 -30 -78 3 -100 18 -12 31 -14 52 -7 35 12 28 28
-11 28 -16 0 -31 6 -33 13 -3 8 9 12 42 12 43 0 46 1 40 23 -14 45 -54 59 -93
31z m63 -24 c4 -6 -7 -10 -25 -10 -18 0 -29 4 -25 10 3 6 15 10 25 10 10 0 22
-4 25 -10z"/>
<path d="M699 284 c-1 -19 -2 -44 -2 -56 -1 -14 5 -24 16 -26 14 -3 17 4 17
42 0 38 3 46 18 46 27 0 42 -20 42 -57 0 -23 5 -33 15 -33 11 0 15 11 15 38 0
56 -19 76 -74 78 -46 2 -46 1 -47 -32z"/>
<path d="M846 305 c-21 -21 -7 -50 29 -59 36 -9 32 -29 -5 -24 -37 6 -41 -17
-5 -26 66 -17 89 44 28 72 l-38 17 33 3 c20 2 32 8 29 15 -6 19 -53 20 -71 2z"/>
<path d="M972 304 c-18 -12 -22 -24 -20 -52 4 -45 40 -68 82 -52 38 14 32 30
-10 27 -22 -1 -39 3 -41 11 -3 8 9 12 41 12 52 0 60 16 26 50 -24 24 -48 25
-78 4z m63 -24 c4 -6 -7 -10 -25 -10 -18 0 -29 4 -25 10 3 6 15 10 25 10 10 0
22 -4 25 -10z"/>
<path d="M1273 312 c-21 -3 -23 -9 -23 -58 0 -64 17 -73 22 -11 2 34 7 42 23
42 16 0 21 -8 23 -42 2 -29 8 -43 18 -43 10 0 14 12 14 45 0 38 3 45 20 45 17
0 20 -7 20 -45 0 -33 4 -45 15 -45 11 0 15 11 15 43 0 23 -4 48 -9 56 -9 14
-87 21 -138 13z"/>
<path d="M1460 300 c-43 -43 -11 -104 52 -98 41 4 39 22 -4 22 -53 1 -47 26 6
26 34 0 46 4 46 15 0 22 -37 55 -60 55 -11 0 -29 -9 -40 -20z m70 -20 c0 -12
-28 -20 -46 -13 -15 6 -15 7 1 19 17 13 45 9 45 -6z"/>
<path d="M1190 255 c0 -42 3 -55 15 -55 12 0 15 13 15 55 0 42 -3 55 -15 55
-12 0 -15 -13 -15 -55z"/>
</g>
</svg>
